<svg version="1.0" xmlns="http://www.w3.org/2000/svg" width="230.7" height="222.7" viewBox="0 0 173 167"><path d="M69 4l1 3c1 1 3 21 3 37v9l-11 2c-17 3-17 3-12-6 5-11 5-12 0-15-5-2-8-3-10-2v4c2 3 2 4 0 9-1 8-10 26-16 35-4 7-5 9-3 9s11-10 17-19l5-8 3 1c1 1 4 1 14-1l13-2v26l-5 1-13 2c-9 2-10 2-8 5 3 3 6 3 16 1l10-1c1 0 2 27 0 28l-19 3-30 3c-18 2-19 4-7 8 5 1 5 1 18-1 40-6 53-8 82-7 25 0 27 0 27-2s-2-4-8-8c-4-3-9-3-32 0l-20 3h-2V92h8c8-1 17-3 19-6 2-2 0-4-4-5-3 0-18 1-22 3l-1-13V59l14-3 16-4 3-1-2-2c-3-3-11-3-22-1l-8 2V20c2-14 2-13-2-15l-7-3c-5 0-5 0-5 2z"/></svg>