<svg xmlns="http://www.w3.org/2000/svg" width="392.2" height="392.2"><path d="M369 18H24C11 18 0 29 0 42v309c0 13 11 23 24 23h345c13 0 23-10 23-23V42c0-13-10-24-23-24zm-71 40c0-5 3-9 8-9h9c5 0 9 4 9 9v9c0 5-4 9-9 9h-9c-5 0-8-4-8-9v-9zm-41 0c0-5 4-9 9-9h8c5 0 9 4 9 9v9c0 5-4 9-9 9h-8c-5 0-9-4-9-9v-9zm107 288H28V102h336v244zm0-279c0 5-4 9-9 9h-8c-5 0-9-4-9-9v-9c0-5 4-9 9-9h8c5 0 9 4 9 9v9z"/><path d="M84 233l63 30a12 12 0 0012-1c4-2 6-6 6-10v-1c0-5-3-9-7-11l-40-18 40-19a12 12 0 00-5-24l-6 2-63 29c-4 2-7 7-7 11v1c0 5 3 9 7 11zM165 293c3 3 6 5 10 5 6 0 11-3 12-8l42-129a12 12 0 00-12-16c-6 0-10 3-12 8l-42 129c-1 4 0 8 2 11zM227 192c0 5 3 9 8 11l39 19-39 18c-5 2-8 6-8 11a12 12 0 0018 12l63-30c4-2 7-6 7-11v-1c0-4-3-9-7-11l-63-29a12 12 0 00-18 11z"/></svg>