<svg version="1.1" id="Layer_1" xmlns="http://www.w3.org/2000/svg" x="0" y="0" viewBox="0 0 120 120" xml:space="preserve"><style>.st0{fill:#b31b1b}</style><path class="st0" d="M45.9 91.7c6.8 5.3 13.5 8.2 13.8 8.3l.5.2.5-.2c.3-.1 6.9-3 13.7-8.3 9.1-7.1 13.9-15.2 13.9-23.5V30.6H31.9v37c0 8.5 4.8 16.9 14 24.1zm12.9-11.6c-.3-.1-.6-.2-1-.2h-.1c-1.4 0-2.4.1-3.5.2s-2.2.2-3.8.2h-1.9V62.7H51.3c.9 0 1.9-.1 3-.2.6-.1 1.3-.1 2-.2 1.2-.1 2.2.1 2.2.1.1 0 .2.1.3.1v17.6zm26.8-11.9c0 15.4-18.9 25.8-24.5 28.6v-14l.3-.3c.3-.3.5-.5 1-.5 1.3 0 2.3.1 3.4.2s2.2.2 3.9.2h3.9v-5.2h2.2v-2.8h-2.2v-5.1h2.2v-2.8h-2.2v-5.7h-4.8c-.8 0-1.7-.1-2.8-.2-.6-.1-1.3-.1-2-.2-1.5-.2-2.8.1-2.9.1H61V55h24.5l.1 13.2zm-24.5 12V62.5c.1-.1.3-.1.5-.2 0 0 1.1-.2 2.3-.1.7.1 1.4.1 2 .2 1.1.1 2.1.2 3 .2h2.8v17.7h-1.9c-1.6 0-2.7-.1-3.8-.2-1.1-.1-2.1-.2-3.5-.2-.6.1-1 .2-1.4.3zM34.6 33.3h51v19.1h-51V33.3zm0 21.7h24.3v5.3c-.4-.1-1.5-.2-2.7-.1-.7.1-1.4.1-2 .2-1.1.1-2 .2-2.8.2h-4.8v5.1h-2.4v2.8h2.4v5.1h-2.4v2.8h2.4v5.7h.9c.1 0 1.4.1 3 0 1.7 0 2.9-.1 3.9-.2 1.1-.1 2-.2 3.3-.2.5 0 .7.2.9.5l.1.1v14.1C53 93.8 34.6 83.5 34.6 67.6V55z"/><path class="st0" d="M55.9 35.2H41.6v9.6c.1 1.1.8 2.1 2.2 3 1.7 1.2 4.3 2.7 4.4 2.7l.5.3.5-.3c.1-.1 2.9-1.6 4.6-2.7 2-1.3 2.1-2.6 2.1-3v-9.6zm-12.3 2h10.2v2.6H43.6v-2.6zm10.3 7.5c0 .5-.7 1-1.2 1.4-1.2.8-3.1 1.9-4 2.4-.8-.5-2.6-1.5-3.8-2.4-.8-.5-1.3-1.1-1.3-1.5v-2.9h10.2c.1 1.6.1 2.8.1 3zM80.1 34.8H65.6v9.9c.1 1.1.8 2.1 2.2 3 1.8 1.2 4.4 2.7 4.5 2.8l.5.3.5-.3c.1-.1 3-1.6 4.7-2.8 2.1-1.4 2.1-2.6 2.1-3v-9.9zm-2 9.7c0 .5-.7 1.1-1.2 1.4-1.3.8-3.2 1.9-4.1 2.4-.9-.5-2.6-1.6-3.9-2.4-.4-.3-1.3-.9-1.3-1.5v-.5l5-3.6 5.5 3.7v.5zm-5.5-6.7l-5 3.6v-4.7h10.6v4.8l-5.6-3.7zM63.7 66.5l1 .1c.6.1 1.2.1 1.7.1l2.9.1v-2l-2.9-.1c-.4 0-.9-.1-1.5-.1l-1-.1h-.7l.1 2c.1-.1.3-.1.4 0zM66.4 70.2c-.4 0-.9-.1-1.5-.1-.3 0-.7-.1-1-.1h-.7v2h.5c.4 0 .7.1 1 .1.6.1 1.1.1 1.6.1h3v-2h-.8c-.6.1-1.5 0-2.1 0zM66.4 75.8c-.4 0-.9-.1-1.5-.1-.3 0-.7-.1-1-.1h-.7l.1 2h.5c.4 0 .7.1 1 .1.6.1 1.2.1 1.6.1h.8c.8 0 1.8 0 2.1.1v-2c-.3 0-1.3 0-2.1-.1h-.8zM53.8 66.7c.5 0 1-.1 1.7-.1.3 0 .6-.1 1-.1h.5v-2h-.7c-.4 0-.7.1-1 .1-.6.1-1.1.1-1.5.1l-2.9.1v2l2.9-.1zM55.3 70.1c-.6.1-1.1.1-1.5.1l-2.9.1v2l2.9-.1c.5 0 1-.1 1.7-.1l.9-.1h.4l.1-2h-.7l-.9.1zM55.3 75.6c-.6.1-1.1.1-1.6.1-.9 0-2.4.1-2.8.1v2c.4 0 1.9-.1 2.9-.1.5 0 1-.1 1.7-.1l1-.1h.4v-2h-.7l-.9.1zM9.3 60.3c2.5 0 4-1.6 4.2-4.4 0-.5 0-1.2-.1-1.9v-.2h-2.1l.2.4c.1.3.2 1 .2 1.6-.1 1.4-1.2 2.3-2.7 2.2-1.6-.1-2.5-1.1-2.5-2.5 0-.5.1-1 .5-1.5l.3-.4-2-.3-.1.2c-.3.6-.4 1.3-.5 1.9-.2 2.9 1.4 4.8 4.3 4.9h.3zM9.7 50.5c.6.2 1.1.2 1.6.2 1.9 0 3.3-1.1 3.9-3 .3-1.2.2-2.2-.3-3.2-.6-1-1.6-1.7-2.9-2.1-.5-.2-1.1-.2-1.5-.2-1.9 0-3.3 1.1-3.9 3-.8 2.5.4 4.5 3.1 5.3zm-1.4-4.7c.3-1.1 1.2-1.3 1.9-1.3.3 0 .7.1 1.1.2.9.3 1.6.7 1.9 1.3.2.4.3.8.1 1.3-.3 1.1-1.2 1.3-1.9 1.3-.4 0-.7-.1-1.1-.2-1.2-.4-2.4-1.3-2-2.6zM18.3 39.3l-2.9-1.6.1-.2c.3-.5.5-.5.9-.4l2.9.4 1.1-2.1-3.8-.4h-.7c0-.8-.4-1.6-1.2-2-.4-.2-.8-.3-1.2-.3-1.4 0-2.1 1.4-2.8 2.7l-1 1.9 7.6 4.1 1-2.1zm-4.5-2.7l-.1.2-1.4-.7.1-.2c.3-.6.7-1.2 1.3-.9.2.1.3.2.4.4.1.4-.1.9-.3 1.2zM23 31.7l-3.9-3.2 5.6 1.3 1.5-1.9-6.6-5.5-1.4 1.6 4 3.3-5.6-1.3-1.6 1.9 6.7 5.5zM32.7 22.4L31.5 21l-2.4 1.9-1.1-1.3 2.2-1.8-1.2-1.4-2.2 1.8-.8-1.1 2.4-1.9-1.2-1.5-4.1 3.3 5.4 6.7zM39.8 18.1l-.9-1.6-2.7 1.5-3.3-5.9-1.9 1.1 4.2 7.5zM47.1 15.3l-.7-1.7-2.8 1-2.3-6.3-2.1.7 2.9 8.1zM55.8 13.9h.5c1.2-.1 2.1-.5 2.6-1.1.5-.6.7-1.5.6-2.5l-.4-5.4-2.2.1.4 4.9c.1 1.7-.6 2-1.2 2.1h-.2c-.5 0-1.2-.2-1.4-1.9l-.4-4.9-2.2.2.4 5.4c.4 2 1.5 3.1 3.5 3.1zM65.7 8.8l1.8 5.3 2.5.4 1.1-8.6-2.1-.3-.7 5.1-1.8-5.4-2.4-.3-1.2 8.5 2.1.3zM77.6 7.8l-2.1-.7-2.6 8.2 2.1.7zM88.4 12.6l-1.9-1-4.2 4.3.9-5.9-2.1-1.1-1.3 9.1 2.2 1zM90.6 25l1.1-1.5-2.4-1.9 1-1.3 2.2 1.7 1.2-1.5-2.2-1.7.8-1.1 2.4 1.9 1.2-1.5-4.2-3.2-5.3 6.8zM94.2 28.6l2.5-2.2.1.2c.3.4.3.5.1 1l-1.4 2.6 1.6 1.8 1.7-3.4c.1-.1.2-.4.2-.7.7.3 1.6.2 2.3-.4 1.9-1.6.4-3.3-.7-4.6l-1.4-1.6-6.5 5.7 1.5 1.6zm5.1-4.5l.1.2c.3.4.6.8.6 1.1 0 .2-.1.3-.3.4-.1.2-.3.2-.4.2-.4 0-.8-.4-1-.7l-.1-.2 1.1-1zM102.2 35.5c-.4.3-1-.2-1.2-.6-.3-.5-.4-1-.4-1.7v-.5l-2 .9.1.4c.2.7.3 1.1.7 1.8.7 1.2 1.6 1.8 2.6 1.8.5 0 .9-.1 1.4-.4 1.5-.9 1.3-2.3 1.1-3.4-.1-.7-.2-1.2.1-1.4.2-.1.3-.1.4-.1.4 0 .7.4.8.5.3.4.4.9.5 1.4l.1.4 1.8-.8v-.2c-.1-.6-.4-1.2-.8-1.9-.9-1.6-2.5-2.1-3.9-1.2-1.5.9-1.3 2.3-1.1 3.3.1 1 .2 1.5-.2 1.7z"/><path transform="matrix(.9259 -.3777 .3777 .9259 -7.4559 43.3568)" class="st0" d="M102.5 39.6h8.6v2.2h-8.6z"/><path class="st0" d="M111.2 46.2l-6.5 1.6.5 2.1 6.6-1.6.5 2.2 1.8-.4-1.6-6.6-1.8.5zM106.2 56.6l.1 2.2 3.4-.2 5.4 2.8-.1-2.4-3.2-1.5 3-1.9-.2-2.6-5 3.5zM11 76.4l1.8-.5-.7-2.6 1.3-.4.8 2.8 1.8-.6-1.4-4.8-8.3 2.4.6 2.1 3.4-1zM18.7 83.6c.3-1 .2-2.1-.3-3.2-.8-1.6-2-2.4-3.6-2.4-.7 0-1.5.2-2.3.6-1.3.6-2.1 1.5-2.5 2.6-.3 1-.2 2.1.3 3.2.8 1.5 2 2.4 3.6 2.4.7 0 1.5-.2 2.3-.6 1.3-.7 2.2-1.5 2.5-2.6zm-3.4.5c-.5.3-1.1.4-1.6.4-.8 0-1.3-.3-1.6-1-.2-.5-.3-.9-.1-1.3.2-.6.8-1.2 1.6-1.6.5-.2 1-.4 1.5-.4.8 0 1.3.3 1.6 1 .2.5.3.9.1 1.3-.2.6-.7 1.2-1.5 1.6zM24.7 90.3l-3.9 3.1c-1 .8-1.8.9-2.4.2-.2-.3-.3-.6-.3-.9.1-.4.4-.9 1-1.4l3.9-3.1-1.4-1.7-4.3 3.4c-.9.7-1.4 1.5-1.4 2.4 0 .8.3 1.6 1 2.5.8 1.1 1.7 1.6 2.7 1.6.7 0 1.4-.3 2.1-.9L26 92l-1.3-1.7zM32 97.3l-3.2 4 1.2-5.6-1.9-1.6-5.5 6.7 1.7 1.4 3.2-4-1.2 5.6 1.9 1.6 5.5-6.7zM38.4 101.4l-2.2-1.1-3.9 7.7 2.2 1.1c1.1.5 2 .8 2.9.8 1.5 0 2.7-.8 3.5-2.4 1.3-2.6.4-4.6-2.5-6.1zm.4 5.1c-.4.9-1.2 1.4-2.1 1.4-.4 0-.7-.1-1.1-.3l-.5-.3 2.2-4.4.5.3c.6.3 1 .8 1.2 1.3.2.7.1 1.3-.2 2zM43.2 112.8l5.1 1.4.5-1.8-3-.8.4-1.6 2.8.7.5-1.8-2.8-.7.3-1.4 3.1.8.4-1.8-5.1-1.3zM55.9 106.5l-2.5-.1-.5 8.6 2.5.1h.6c2.9 0 4.4-1.4 4.6-4.1.1-1.3-.2-2.4-.9-3.2-.8-.7-2-1.2-3.8-1.3zm-.1 6.8h-.6l.3-4.9h.6c1.2.1 2.3 1 2.2 2.6-.1 1.6-1.3 2.3-2.5 2.3zM68.2 105.8l-1.5 9.1 2.3-.5.3-1.9 2.8-.6 1.1 1.7 2.4-.5-5.1-7.7-2.3.4zm1.4 4.8l.3-2.3 1.2 1.9-1.5.4zM76.4 110.3l.8 2.1 2-.8-.7-2zM80.6 101.6l-2.2 1.2 4.1 7.6 2.2-1.2c2.9-1.6 3.6-3.6 2.3-6.1-1.3-2.6-3.5-3.1-6.4-1.5zm3.5 5.8l-.5.3-2.3-4.3.5-.3c.3-.2.7-.3 1.1-.3.9 0 1.6.5 2.1 1.3.8 1.4.1 2.7-.9 3.3zM88.7 104.3l1.2 1.8 1.8-1.3-1.2-1.8zM92.1 93.2l-.4 3.4 1.9.3.2-1.4 4.1 4.1 1.6-1.5-6.1-6.2zM103.8 88.7c-.7-.5-1.5-.6-2.4-.3 0-.8-.4-1.6-1-2-1.1-.8-2.5-.3-3.6 1.1-1 1.4-.9 2.8.3 3.7.6.4 1.4.5 2.1.3-.1.9.2 1.6.9 2.1.5.4 1 .5 1.5.5.9 0 1.7-.5 2.5-1.5.6-.8.9-1.6.8-2.4-.1-.5-.5-1-1.1-1.5zm-4.1.6c-.3.2-.6.4-.9.4-.1 0-.3 0-.4-.1-.4-.3-.2-.8 0-1.1.1-.2.3-.3.5-.3.1 0 .3.1.5.2.3.2.4.6.3.9zm3 2.4c-.3.4-.8.5-1.2.2-.3-.3-.5-.6-.4-1.2.6-.4 1.1-.5 1.5-.2.2.1.3.3.3.5s-.1.5-.2.7zM107.7 80.3c-1.5-.7-2.9-.3-3.6 1.1-.2.4-.3.8-.2 1.2-.5-.4-1-1.1-.6-2 .2-.4.5-.7.8-1l.3-.2-1.6-1.1-.2.2c-.4.4-.8.9-1.1 1.5-.4.9-.5 1.7-.2 2.5.5 1.4 1.9 2.4 3 2.9 1 .5 1.8.7 2.5.7 1.1 0 1.9-.5 2.5-1.6.8-1.8.2-3.3-1.6-4.2zm0 3.2c-.1.3-.4.4-.7.4-.2 0-.5-.1-.7-.2-.4-.2-.7-.5-.8-.7-.1-.2 0-.3 0-.5.1-.3.3-.4.7-.4.2 0 .5.1.8.2.4.2.6.4.7.7.1.2 0 .4 0 .5zM110.8 71.5c-1.7-.5-3.1.3-3.6 1.9 0 .2-.1.3-.1.4l-1-.3.9-3-1.7-.5-1.5 5 4.8 1.5v-.4c0-.5.1-.9.2-1.4.1-.4.6-1.4 1.5-1.2 1 .3.8 1.4.7 1.7-.2.6-.5 1-.8 1.4l-.3.3 2 .7.1-.2c.3-.6.6-1.3.8-1.8.3-1 .3-1.9-.1-2.7-.4-.6-1.1-1.1-1.9-1.4z"/><path class="st0" d="M16.3 60c0 24 19.5 43.6 43.5 43.6s43.5-19.5 43.5-43.6c0-24-19.5-43.5-43.5-43.5C35.9 16.4 16.3 36 16.3 60zm43.6-42.1c23.2 0 42 18.9 42 42 0 23.2-18.9 42-42 42-23.2 0-42-18.9-42-42-.1-23.1 18.8-42 42-42z"/><path class="st0" d="M59.9.4C27 .4.3 27.1.3 60c0 32.8 26.7 59.6 59.6 59.6 32.8 0 59.6-26.7 59.6-59.6C119.4 27.1 92.7.4 59.9.4zm0 117.6c-32 0-58-26-58-58s26-58 58-58 58 26 58 58-26 58-58 58z"/></svg>