<svg xmlns="http://www.w3.org/2000/svg" viewBox="0 0 64.173 64.173"><path d="M55.597 6.559c-3.363-.634-6.853.441-9.278 2.801-.008-.001-.017-.003-.026-.005-.476-.089-.96-.135-1.441-.135-3.72 0-6.92 2.656-7.609 6.316-.549 2.913.645 5.898 2.997 7.65.51 2.434 2.443 4.373 4.917 4.839.378.071.765.107 1.147.107.892 0 1.759-.215 2.559-.582v27.242h-7.351v-18.43l1.56 1.106c.259.183.563.276.868.276.235 0 .472-.055.689-.168.498-.257.811-.771.811-1.332v-4c0-.486-.236-.942-.632-1.224l-8.279-5.869v-5.708c0-.829-.671-1.5-1.5-1.5s-1.5.671-1.5 1.5v3.581l-9.866-6.994c-.52-.368-1.216-.368-1.735 0L.782 31.022c-.396.281-.632.737-.632 1.224v4c0 .561.313 1.075.811 1.332.499.258 1.1.216 1.557-.109l1.56-1.106v18.43H1.5c-.829 0-1.5.671-1.5 1.5s.671 1.5 1.5 1.5h52.91c.829 0 1.5-.671 1.5-1.5s-.671-1.5-1.5-1.5h-2.546V44.35l3.63-3.796c.573-.599.551-1.548-.047-2.121-.597-.572-1.548-.551-2.121.047l-1.462 1.529V27.263c.595.102 1.198.161 1.797.161 5.049 0 9.394-3.607 10.33-8.577 1.072-5.701-2.693-11.214-8.394-12.288zM28.885 54.793V39.517c0-.829-.671-1.5-1.5-1.5h-9.18c-.829 0-1.5.671-1.5 1.5v15.276H7.078V34.469c0-.074-.011-.146-.022-.217l15.739-11.158 15.739 11.158c-.01.072-.022.143-.022.217v20.324h-9.627zm32.157-36.501c-.669 3.553-3.774 6.132-7.382 6.132-.467 0-.939-.044-1.402-.132-.602-.113-1.211-.313-1.809-.595-.599-.281-1.312-.137-1.754.355-.752.837-1.884 1.233-2.982 1.026-1.403-.264-2.47-1.454-2.592-2.892-.041-.478-.308-.907-.717-1.155-1.687-1.022-2.575-3.006-2.212-4.938.422-2.243 2.383-3.872 4.661-3.872.295 0 .593.028.886.083.206.039.403.096.598.159.576.188 1.208.01 1.603-.45 1.743-2.032 4.468-2.999 7.102-2.505 4.076.767 6.768 4.708 6 8.784z"/></svg>