<?xml version="1.0" encoding="iso-8859-1"?>
<!-- Generator: Adobe Illustrator 18.0.0, SVG Export Plug-In . SVG Version: 6.00 Build 0)  -->
<!DOCTYPE svg PUBLIC "-//W3C//DTD SVG 1.1//EN" "http://www.w3.org/Graphics/SVG/1.1/DTD/svg11.dtd">
<svg version="1.1" id="Capa_1" xmlns="http://www.w3.org/2000/svg" xmlns:xlink="http://www.w3.org/1999/xlink" x="0px" y="0px"
	 viewBox="0 0 64.173 64.173" style="enable-background:new 0 0 64.173 64.173;" xml:space="preserve">
<path d="M55.597,6.559C52.234,5.925,48.744,7,46.319,9.36c-0.008-0.001-0.017-0.003-0.026-0.005
	c-0.476-0.089-0.96-0.135-1.441-0.135c-3.72,0-6.92,2.656-7.609,6.316c-0.549,2.913,0.645,5.898,2.997,7.65
	c0.51,2.434,2.443,4.373,4.917,4.839c0.378,0.071,0.765,0.107,1.147,0.107c0.892,0,1.759-0.215,2.559-0.582v27.242h-7.351v-18.43
	l1.56,1.106c0.259,0.183,0.563,0.276,0.868,0.276c0.235,0,0.472-0.055,0.689-0.168c0.498-0.257,0.811-0.771,0.811-1.332v-4
	c0-0.486-0.236-0.942-0.632-1.224l-8.279-5.869v-5.708c0-0.829-0.671-1.5-1.5-1.5c-0.829,0-1.5,0.671-1.5,1.5v3.581l-9.866-6.994
	c-0.52-0.368-1.216-0.368-1.735,0L0.782,31.022c-0.396,0.281-0.632,0.737-0.632,1.224v4c0,0.561,0.313,1.075,0.811,1.332
	c0.499,0.258,1.1,0.216,1.557-0.109l1.56-1.106v18.43H1.5c-0.829,0-1.5,0.671-1.5,1.5c0,0.829,0.671,1.5,1.5,1.5h4.078h12.627h9.18
	h12.627H54.41c0.829,0,1.5-0.671,1.5-1.5c0-0.829-0.671-1.5-1.5-1.5h-2.546V44.35l3.63-3.796c0.573-0.599,0.551-1.548-0.047-2.121
	c-0.597-0.572-1.548-0.551-2.121,0.047l-1.462,1.529V27.263c0.595,0.102,1.198,0.161,1.797,0.161c5.049,0,9.394-3.607,10.33-8.577
	C65.063,13.146,61.298,7.633,55.597,6.559z M28.885,54.793V39.517c0-0.829-0.671-1.5-1.5-1.5h-9.18c-0.829,0-1.5,0.671-1.5,1.5
	v15.276H7.078V34.469c0-0.074-0.011-0.146-0.022-0.217l15.739-11.158l15.739,11.158c-0.01,0.072-0.022,0.143-0.022,0.217v20.324
	H28.885z M61.042,18.292c-0.669,3.553-3.774,6.132-7.382,6.132c-0.467,0-0.939-0.044-1.402-0.132
	c-0.602-0.113-1.211-0.313-1.809-0.595c-0.599-0.281-1.312-0.137-1.754,0.355c-0.752,0.837-1.884,1.233-2.982,1.026
	c-1.403-0.264-2.47-1.454-2.592-2.892c-0.041-0.478-0.308-0.907-0.717-1.155c-1.687-1.022-2.575-3.006-2.212-4.938
	c0.422-2.243,2.383-3.872,4.661-3.872c0.295,0,0.593,0.028,0.886,0.083c0.206,0.039,0.403,0.096,0.598,0.159
	c0.576,0.188,1.208,0.01,1.603-0.45c1.743-2.032,4.468-2.999,7.102-2.505C59.118,10.275,61.81,14.216,61.042,18.292z"/>
<g>
</g>
<g>
</g>
<g>
</g>
<g>
</g>
<g>
</g>
<g>
</g>
<g>
</g>
<g>
</g>
<g>
</g>
<g>
</g>
<g>
</g>
<g>
</g>
<g>
</g>
<g>
</g>
<g>
</g>
</svg>
