<?xml version="1.0" standalone="no"?>
<!DOCTYPE svg PUBLIC "-//W3C//DTD SVG 20010904//EN"
 "http://www.w3.org/TR/2001/REC-SVG-20010904/DTD/svg10.dtd">
<svg version="1.0" xmlns="http://www.w3.org/2000/svg"
 width="160.000000pt" height="160.000000pt" viewBox="0 0 160.000000 160.000000"
 preserveAspectRatio="xMidYMid meet">
<metadata>
Created by potrace 1.16, written by Peter Selinger 2001-2019
</metadata>
<g transform="translate(0.000000,160.000000) scale(0.100000,-0.100000)"
fill="#ffffff" stroke="none">
<path d="M670 1396 c-72 -21 -114 -41 -153 -76 -50 -43 -49 -61 1 -48 66 17
437 21 525 5 77 -13 78 -13 75 7 -4 29 -86 82 -165 106 -75 23 -211 26 -283 6z"/>
<path d="M619 1250 c-99 -9 -203 -34 -236 -56 -18 -11 -23 -24 -23 -54 l0 -40
446 0 445 0 -3 43 c-3 37 -7 44 -39 60 -20 10 -71 24 -114 32 -94 18 -359 27
-476 15z"/>
<path d="M150 1056 c0 -2 11 -29 25 -60 24 -55 25 -64 25 -269 0 -205 -1 -214
-25 -265 -14 -30 -25 -56 -25 -58 0 -2 293 -4 650 -4 358 0 650 2 650 4 0 2
-11 29 -25 60 -24 54 -25 64 -25 266 0 202 1 212 25 266 14 31 25 58 25 60 0
2 -292 4 -650 4 -357 0 -650 -2 -650 -4z m280 -327 l0 -210 -42 3 -43 3 -3
195 c-1 107 0 200 2 207 3 8 22 13 46 13 l40 0 0 -211z m205 1 l0 -205 -40 0
-40 0 -3 195 c-1 107 0 200 3 208 3 9 18 12 42 10 l38 -3 0 -205z m210 0 l0
-205 -42 -3 -43 -3 0 211 0 211 43 -3 42 -3 0 -205z m205 -1 l0 -210 -42 3
-43 3 -3 195 c-1 107 0 200 2 207 3 8 22 13 46 13 l40 0 0 -211z m205 1 l0
-205 -40 0 -40 0 -3 195 c-1 107 0 200 3 208 3 9 18 12 42 10 l38 -3 0 -205z"/>
</g>
</svg>
