<svg xmlns="http://www.w3.org/2000/svg" xmlns:xlink="http://www.w3.org/1999/xlink" width="640" height="640"><defs><path d="M357 279c-4 0-7 3-7 7v22c0 20-17 37-37 37-25 0-45 20-45 45 0 4 3 7 7 7h75v164a19 19 0 1039 0V397h190v164a19 19 0 1038 0V397h15c5 0 8-3 8-7V286c0-4-3-7-8-7H357z" id="a"/><path d="M598 152a14 14 0 01-14-16l12-67a8 8 0 00-8-9h-37c-3 0-5 1-7 4L443 244h189v-58c-10-23-22-34-34-34z" id="b"/><path d="M236 374l-47-12-25 7c-20 6-40-5-45-25l-27-93 48 80c5 8 13 12 21 12 4 0-2 2 103-28a24 24 0 00-13-47l-79 23-38-64 39 37 10-3 2-25c1-20-14-37-33-39l-61-4a36 36 0 00-39 36l1 176H19c-10 0-19 8-19 19v137a19 19 0 1039 0v-54h110v54a19 19 0 0039 0V421l15 4 16 130a29 29 0 0058-7l-19-149c-7-15-14-23-22-25zM39 481v-38h110v38H39z" id="c"/><path d="M134 60a56 56 0 100 112 56 56 0 000-112z" id="d"/><path d="M617 320a297 297 0 11-594 0 297 297 0 01594 0z" id="e"/><path d="M561 125L136 549l-33-34L527 91l34 34z" id="f"/></defs><use xlink:href="#a"/><use xlink:href="#a" fill-opacity="0" stroke="#000" stroke-opacity="0"/><use xlink:href="#b"/><use xlink:href="#b" fill-opacity="0" stroke="#000" stroke-opacity="0"/><use xlink:href="#c"/><use xlink:href="#c" fill-opacity="0" stroke="#000" stroke-opacity="0"/><g><use xlink:href="#d"/><use xlink:href="#d" fill-opacity="0" stroke="#000" stroke-opacity="0"/></g><g><use xlink:href="#e" fill="#d19e6e" fill-opacity="0"/><use xlink:href="#e" fill-opacity="0" stroke="#e31818" stroke-width="48"/></g><g><use xlink:href="#f" fill="#e31818"/></g></svg>