<?xml version="1.0" encoding="UTF-8" standalone="no"?>
<!DOCTYPE svg PUBLIC "-//W3C//DTD SVG 1.1//EN" "http://www.w3.org/Graphics/SVG/1.1/DTD/svg11.dtd">
<svg version="1.1" xmlns="http://www.w3.org/2000/svg" xmlns:xlink="http://www.w3.org/1999/xlink" preserveAspectRatio="xMidYMid meet" viewBox="0 0 640 640" width="640" height="640"><defs><path d="M357.36 278.7C353.2 278.7 349.83 282.07 349.83 286.23C349.83 288.37 349.83 305.49 349.83 307.64C349.83 328.13 333.21 344.75 312.72 344.75C287.76 344.75 267.52 364.98 267.52 389.94C267.52 394.1 270.89 397.47 275.05 397.47C280.05 397.47 305.05 397.47 350.06 397.47C350.06 495.71 350.06 550.29 350.06 561.2C350.06 571.86 358.7 580.5 369.36 580.5C380.02 580.5 388.66 571.86 388.66 561.2C388.66 550.29 388.66 495.71 388.66 397.47L578.85 397.47C578.85 495.71 578.85 550.29 578.85 561.2C578.85 571.86 587.49 580.5 598.15 580.5C608.81 580.5 617.45 571.86 617.45 561.2C617.45 550.29 617.45 495.71 617.45 397.47C626.46 397.47 631.47 397.47 632.47 397.47C636.63 397.47 640 394.1 640 389.94C640 379.57 640 296.6 640 286.23C640 282.07 636.63 278.7 632.47 278.7C577.45 278.7 384.87 278.7 357.36 278.7Z" id="c1DrSJoyYm"></path><path d="M598.03 152.02C593.92 152.02 590.02 150.2 587.38 147.04C584.74 143.88 583.64 139.71 584.38 135.66C585.58 129.04 595.19 76.08 596.39 69.45C596.83 67.05 596.17 64.58 594.61 62.7C593.04 60.82 590.72 59.74 588.28 59.74C584.59 59.74 555.06 59.74 551.37 59.74C548.38 59.74 545.63 61.35 544.17 63.96C537.45 75.98 503.82 136.1 443.3 244.3L631.63 244.3L631.63 185.62C621.6 163.22 610.4 152.02 598.03 152.02Z" id="fclKsFOSy"></path><path d="M236.33 374.14C231.63 372.92 194.09 363.23 189.39 362.02C172.58 366.79 176.67 365.63 163.6 369.34C144.25 374.84 124.1 363.6 118.61 344.25C118.6 344.24 118.6 344.22 118.59 344.18L92.44 251.43C121.07 299.35 136.98 325.96 140.16 331.29C144.6 338.71 152.54 343.04 160.87 343.04C165.49 343.04 158.69 344.61 263.74 314.77C276.55 311.13 283.99 297.79 280.35 284.98C276.71 272.16 263.37 264.72 250.55 268.36C245.32 269.85 219.17 277.27 172.08 290.65L133.86 226.68L172.8 264.32L183.14 261.38C184.23 245.99 184.84 237.44 184.96 235.73C186.37 215.92 171.44 198.71 151.63 197.31C145.52 196.87 96.68 193.41 90.57 192.97C80.57 192.26 70.72 195.76 63.41 202.63C56.1 209.49 51.98 219.1 52.06 229.13C52.15 240.82 52.59 299.32 53.39 404.6C32.94 404.6 21.57 404.6 19.3 404.6C8.64 404.6 0 413.24 0 423.9C0 437.61 0 547.25 0 560.96C0 571.62 8.64 580.26 19.3 580.26C29.96 580.26 38.6 571.62 38.6 560.96C38.6 557.39 38.6 539.56 38.6 507.47L149.22 507.47C149.22 539.56 149.22 557.39 149.22 560.96C149.22 571.62 157.87 580.26 168.53 580.26C179.18 580.26 187.82 571.62 187.82 560.96C187.82 413.98 187.92 423.46 187.64 421.36C188.65 421.63 193.73 422.94 202.86 425.29C212.82 503.25 218.35 546.56 219.46 555.22C221.49 571.1 236.01 582.29 251.85 580.27C267.71 578.24 278.92 563.74 276.89 547.88C275.62 537.92 269.26 488.13 257.81 398.5C251.13 384.23 243.97 376.11 236.33 374.14ZM38.6 480.84L38.6 443.2L149.23 443.2L149.23 480.84L38.6 480.84Z" id="b1jbmfvpi5"></path><path d="M133.62 59.5C102.63 59.5 77.51 84.62 77.51 115.61C77.51 146.6 102.63 171.72 133.62 171.72C164.61 171.72 189.73 146.6 189.73 115.61C189.73 84.62 164.61 59.5 133.62 59.5Z" id="bogMhc0ZW"></path><path d="M617 320C617 483.92 483.92 617 320 617C156.08 617 23 483.92 23 320C23 156.08 156.08 23 320 23C483.92 23 617 156.08 617 320Z" id="a3o8KNpu6N"></path><path d="M560.73 124.84L136.47 549.1L102.53 515.16L526.79 90.9L560.73 124.84Z" id="bBqG6fRxd"></path></defs><g><g><g><use xlink:href="#c1DrSJoyYm" opacity="1" fill="#000000" fill-opacity="1"></use><g><use xlink:href="#c1DrSJoyYm" opacity="1" fill-opacity="0" stroke="#000000" stroke-width="1" stroke-opacity="0"></use></g></g><g><use xlink:href="#fclKsFOSy" opacity="1" fill="#000000" fill-opacity="1"></use><g><use xlink:href="#fclKsFOSy" opacity="1" fill-opacity="0" stroke="#000000" stroke-width="1" stroke-opacity="0"></use></g></g><g><use xlink:href="#b1jbmfvpi5" opacity="1" fill="#000000" fill-opacity="1"></use><g><use xlink:href="#b1jbmfvpi5" opacity="1" fill-opacity="0" stroke="#000000" stroke-width="1" stroke-opacity="0"></use></g></g><g><use xlink:href="#bogMhc0ZW" opacity="1" fill="#000000" fill-opacity="1"></use><g><use xlink:href="#bogMhc0ZW" opacity="1" fill-opacity="0" stroke="#000000" stroke-width="1" stroke-opacity="0"></use></g></g><g><use xlink:href="#a3o8KNpu6N" opacity="1" fill="#d19e6e" fill-opacity="0"></use><g><use xlink:href="#a3o8KNpu6N" opacity="1" fill-opacity="0" stroke="#e31818" stroke-width="48" stroke-opacity="1"></use></g></g><g><use xlink:href="#bBqG6fRxd" opacity="1" fill="#e31818" fill-opacity="1"></use></g></g></g></svg>