<svg xmlns="http://www.w3.org/2000/svg" viewBox="0 0 458.8 458.8"><path d="M453 200H256c-3 0-5 2-5 5v16c0 14-12 26-27 26-18 0-32 15-32 33 0 2 2 5 5 5h54v117a14 14 0 1028 0V285h136v117a14 14 0 1028 0V285h10c3 0 6-3 6-5v-75c0-3-3-5-6-5zM453 133c0-13-11-24-24-24a10 10 0 01-10-12l9-47a6 6 0 00-6-7h-27c-2 0-4 1-5 3l-72 129h135v-42z"/><path d="M185 286c-1-9-7-16-16-18l-33-8-19 5c-14 4-28-4-32-18l-19-67 34 57c4 6 9 9 15 9 4 0-1 1 74-20a17 17 0 00-9-34l-57 16-27-46 28 27 7-2 2-18c1-14-10-27-24-28l-44-3a26 26 0 00-28 26l1 126H14c-8 0-14 6-14 14v98a14 14 0 1028 0v-38h79v38a14 14 0 1028 0V302l10 3 12 93a21 21 0 1041-5l-13-107zm-78 59H28v-27h79v27z"/><circle cx="95.8" cy="82.9" r="40.2"/></svg>