<?xml version="1.0" encoding="iso-8859-1"?>
<!-- Generator: Adobe Illustrator 16.0.0, SVG Export Plug-In . SVG Version: 6.00 Build 0)  -->
<!DOCTYPE svg PUBLIC "-//W3C//DTD SVG 1.1//EN" "http://www.w3.org/Graphics/SVG/1.1/DTD/svg11.dtd">
<svg version="1.1" id="Capa_1" xmlns="http://www.w3.org/2000/svg" xmlns:xlink="http://www.w3.org/1999/xlink" x="0px" y="0px"
	 width="41.471px" height="41.471px" viewBox="0 0 41.471 41.471" style="enable-background:new 0 0 41.471 41.471;"
	 xml:space="preserve">
<g>
	<path d="M41.32,12.013c-0.896-2.086-4.365-1.516-5.813-1.19c-1.624,0.364-4.028,0.971-6.731,1.679l-9.514-2.871l-4.771,1.489
		l0.814,1.688l-5.345,1.34c-0.4,0.101-0.646,0.508-0.545,0.908c0.102,0.402,0.508,0.646,0.91,0.545l5.646-1.414l0.759,1.568
		c-4.253,1.172-7.456,2.073-7.456,2.073l-5.25-2.965L0,16.202c5.25,6.25,7.337,8.185,7.337,8.185l9.392-2.386l-0.175,1.929
		l-8.341,2.092c-0.4,0.102-0.646,0.508-0.545,0.908c0.102,0.402,0.509,0.646,0.91,0.545l7.832-1.963l-0.185,2.035l-4.388,1.1
		c-0.4,0.102-0.646,0.508-0.545,0.908c0.102,0.402,0.509,0.646,0.91,0.545l3.878-0.973l-0.247,2.713l4.323-1.193
		c3.594-4.006,7.469-9.068,10.094-12.443l1.979-0.375l5.963-1.639C42.512,14.697,41.32,12.013,41.32,12.013z"/>
</g>
<g>
</g>
<g>
</g>
<g>
</g>
<g>
</g>
<g>
</g>
<g>
</g>
<g>
</g>
<g>
</g>
<g>
</g>
<g>
</g>
<g>
</g>
<g>
</g>
<g>
</g>
<g>
</g>
<g>
</g>
</svg>
