<svg xmlns="http://www.w3.org/2000/svg" xmlns:xlink="http://www.w3.org/1999/xlink" width="640" height="640"><defs><path d="M497 218c18-79 10-142-25-163-8-4-18-6-28-6v27c6 0 10 1 14 3 17 10 24 47 19 95l-7 36c-24-6-51-10-79-13-17-23-34-44-51-63 40-37 78-58 104-58V48c-34 0-79 25-124 67-46-42-90-66-124-66v28c25 0 63 20 104 58-17 18-35 39-51 62-28 3-55 7-79 13l-7-36c-6-47 1-84 18-94 4-2 9-3 15-3V49c-11 0-20 2-29 7-34 20-42 83-24 162-78 24-128 62-128 102s51 79 128 103c-18 79-10 142 25 162 8 4 18 7 28 7 34 0 79-25 125-67 45 42 90 66 124 66 10 0 20-2 28-7 35-20 43-83 25-162 77-23 127-62 127-102s-51-79-128-102zm-51 68a598 598 0 00-34-59l51 10c-4 16-10 33-17 49zm-70 131a650 650 0 01-112 0 687 687 0 01-56-97 649 649 0 0156-97 646 646 0 01112 0 687 687 0 0156 97 698 698 0 01-56 97zm87-14l-51 10a695 695 0 0034-60c7 17 13 34 17 50zm-177 43a766 766 0 0068 0c-11 15-22 28-34 40-11-12-23-25-34-40zm-109-43c4-16 10-33 17-49a581 581 0 0034 59l-51-10zm177-209a766 766 0 00-69 0c12-15 23-28 35-40 11 12 23 25 34 40zm-144 63l-16 30-18-50 52-10-18 30zM43 320c0-19 28-44 72-63 11-4 22-9 35-12 7 24 16 49 28 75-12 26-21 51-28 76l-35-13c-44-19-72-43-72-63zm120 147l7-37c24 6 51 11 79 14 17 23 34 43 51 62-40 37-78 58-104 58-6 0-10-1-14-3-17-10-24-47-19-94zm296 93c-4 2-9 3-15 3-25 0-63-20-104-58 17-18 35-39 51-62 28-3 55-7 79-13 3 12 6 24 7 36 6 47-1 84-18 94zm31-164c-7-25-16-50-28-76 12-26 21-51 28-76l35 13c44 19 72 44 72 63 0 20-28 44-72 63l-35 13z" id="a"/><path d="M195 49z" id="b"/><path d="M320 263a57 57 0 100 114 57 57 0 000-114z" id="c"/><path d="M444 49z" id="d"/></defs><use xlink:href="#a" fill="#fff"/><use xlink:href="#a" fill-opacity="0" stroke="#000" stroke-opacity="0"/><use xlink:href="#b" fill="#61dafb"/><use xlink:href="#b" fill-opacity="0" stroke="#000" stroke-opacity="0"/><g><use xlink:href="#c" fill="#fff"/><use xlink:href="#c" fill-opacity="0" stroke="#000" stroke-opacity="0"/></g><g><use xlink:href="#d" fill="#61dafb"/><use xlink:href="#d" fill-opacity="0" stroke="#000" stroke-opacity="0"/></g></svg>