<?xml version="1.0" encoding="UTF-8" standalone="no"?>
<!DOCTYPE svg PUBLIC "-//W3C//DTD SVG 1.1//EN" "http://www.w3.org/Graphics/SVG/1.1/DTD/svg11.dtd">
<svg version="1.1" xmlns="http://www.w3.org/2000/svg" xmlns:xlink="http://www.w3.org/1999/xlink" preserveAspectRatio="xMidYMid meet" viewBox="0 0 640 640" width="640" height="640"><defs><path d="M496.81 217.61C514.71 138.53 506.75 75.61 471.69 55.47C463.61 50.75 454.16 48.51 443.84 48.51C443.84 51.28 443.84 73.46 443.84 76.24C449.56 76.24 454.16 77.36 458.01 79.47C474.92 89.17 482.26 126.1 476.54 173.59C475.17 185.28 472.94 197.59 470.2 210.15C445.83 204.18 419.22 199.58 391.25 196.6C374.46 173.59 357.05 152.7 339.52 134.43C380.06 96.75 418.1 76.11 443.96 76.11C443.96 73.34 443.96 51.16 443.96 48.38C443.96 48.38 443.96 48.38 443.96 48.38C409.77 48.38 365.01 72.76 319.75 115.03C274.49 73 229.73 48.88 195.54 48.88C195.54 51.66 195.54 73.84 195.54 76.61C221.28 76.61 259.45 97.13 299.98 134.55C282.57 152.83 265.17 173.59 248.63 196.6C220.53 199.58 193.92 204.18 169.55 210.27C166.69 197.84 164.58 185.78 163.09 174.21C157.24 126.72 164.45 89.79 181.24 79.97C184.97 77.73 189.82 76.73 195.54 76.73C195.54 73.96 195.54 51.78 195.54 49.01C195.54 49.01 195.54 49.01 195.54 49.01C185.09 49.01 175.64 51.24 167.44 55.97C132.5 76.11 124.67 138.9 142.69 217.73C65.36 241.61 15 279.78 15 320.06C15 360.47 65.61 398.77 143.19 422.52C125.29 501.59 133.25 564.51 168.31 584.65C176.39 589.38 185.84 591.62 196.28 591.62C230.48 591.62 275.24 567.24 320.5 524.97C365.76 567 410.52 591.12 444.71 591.12C455.15 591.12 464.6 588.88 472.81 584.15C507.75 564.01 515.58 501.22 497.55 422.39C574.64 398.64 625 360.35 625 320.06C625 279.65 574.39 241.36 496.81 217.61ZM446.33 286.24C441.23 276.3 435.88 266.35 430.04 256.4C424.32 246.45 418.23 236.76 412.13 227.31C429.79 229.92 446.82 233.15 463.11 237.13C458.51 253.17 452.79 269.71 446.33 286.24ZM376.2 417.05C357.67 418.66 338.9 419.53 320 419.53C301.23 419.53 282.45 418.66 264.05 417.17C253.73 402.37 243.66 386.58 233.96 369.92C224.51 353.63 215.93 337.1 208.1 320.44C215.81 303.77 224.51 287.11 233.83 270.82C243.53 254.04 253.48 238.12 263.8 223.33C282.33 221.71 301.1 220.84 320 220.84C338.77 220.84 357.55 221.71 375.95 223.2C386.27 238 396.34 253.79 406.04 270.45C415.49 286.74 424.07 303.28 431.9 319.94C424.07 336.6 415.49 353.26 406.17 369.55C396.47 386.33 386.52 402.25 376.2 417.05ZM463.49 402.87C447.2 406.85 430.04 410.21 412.26 412.82C418.35 403.24 424.44 393.42 430.16 383.35C435.88 373.4 441.23 363.33 446.33 353.38C453.04 370.05 458.76 386.71 463.49 402.87ZM285.68 446.26C296.87 446.76 308.31 447.13 319.88 447.13C331.56 447.13 343.13 446.89 354.44 446.26C343.25 460.81 331.69 474.12 320.25 486.05C308.69 474.12 297.12 460.81 285.68 446.26ZM176.76 403C181.36 386.96 187.08 370.42 193.55 353.88C198.65 363.83 203.99 373.78 209.84 383.72C215.68 393.67 221.65 403.37 227.74 412.82C210.09 410.21 193.05 406.97 176.76 403ZM354.19 193.86C343 193.36 331.56 192.99 320 192.99C308.31 192.99 296.75 193.24 285.43 193.86C296.62 179.31 308.19 166.01 319.63 154.07C331.19 166.01 342.75 179.31 354.19 193.86ZM209.71 256.77C203.99 266.72 198.65 276.67 193.55 286.62C186.83 269.95 181.11 253.29 176.39 237.13C192.68 233.27 209.84 229.92 227.62 227.31C221.52 236.88 215.43 246.7 209.71 256.77ZM42.6 320.06C42.6 300.54 71.08 275.8 115.09 257.15C125.78 252.55 137.47 248.44 149.53 244.59C156.62 268.96 165.95 294.32 177.51 320.31C166.07 346.17 156.87 371.41 149.91 395.66C137.6 391.8 125.91 387.58 115.09 382.98C71.08 364.2 42.6 339.58 42.6 320.06ZM163.46 466.53C164.83 454.84 167.06 442.53 169.8 429.98C194.17 435.94 220.78 440.55 248.75 443.53C265.54 466.53 282.95 487.42 300.48 505.7C259.94 543.37 221.9 564.01 196.04 564.01C190.44 563.89 185.72 562.77 181.99 560.65C165.08 550.96 157.74 514.03 163.46 466.53ZM458.76 560.16C455.03 562.4 450.18 563.39 444.46 563.39C418.72 563.39 380.55 542.87 340.02 505.45C357.43 487.17 374.83 466.41 391.37 443.4C419.47 440.42 446.08 435.82 470.45 429.73C473.31 442.29 475.55 454.35 476.91 465.91C482.76 513.41 475.55 550.33 458.76 560.16ZM490.34 395.53C483.26 371.16 473.93 345.8 462.37 319.81C473.81 293.95 483.01 268.71 489.97 244.47C502.28 248.32 513.97 252.55 524.91 257.15C568.92 275.92 597.4 300.54 597.4 320.06C597.27 339.58 568.8 364.33 524.78 382.98C514.09 387.58 502.4 391.68 490.34 395.53Z" id="i5V3FUi7V"></path><path d="M195.41 48.88L195.41 48.88L195.41 48.88L195.41 48.88Z" id="bhkWwJe7E"></path><path d="M319.88 263.24C288.49 263.24 263.05 288.68 263.05 320.06C263.05 351.44 288.49 376.88 319.88 376.88C351.26 376.88 376.7 351.44 376.7 320.06C376.7 288.68 351.26 263.24 319.88 263.24Z" id="aUnhTWiyh"></path><path d="M443.72 48.51L443.72 48.51L443.72 48.51L443.72 48.51Z" id="fCI6LZ3tr"></path></defs><g><g><g><use xlink:href="#i5V3FUi7V" opacity="1" fill="#61dafb" fill-opacity="1"></use><g><use xlink:href="#i5V3FUi7V" opacity="1" fill-opacity="0" stroke="#000000" stroke-width="1" stroke-opacity="0"></use></g></g><g><use xlink:href="#bhkWwJe7E" opacity="1" fill="#61dafb" fill-opacity="1"></use><g><use xlink:href="#bhkWwJe7E" opacity="1" fill-opacity="0" stroke="#000000" stroke-width="1" stroke-opacity="0"></use></g></g><g><use xlink:href="#aUnhTWiyh" opacity="1" fill="#61dafb" fill-opacity="1"></use><g><use xlink:href="#aUnhTWiyh" opacity="1" fill-opacity="0" stroke="#000000" stroke-width="1" stroke-opacity="0"></use></g></g><g><use xlink:href="#fCI6LZ3tr" opacity="1" fill="#61dafb" fill-opacity="1"></use><g><use xlink:href="#fCI6LZ3tr" opacity="1" fill-opacity="0" stroke="#000000" stroke-width="1" stroke-opacity="0"></use></g></g></g></g></svg>