<?xml version="1.0" encoding="iso-8859-1"?>
<!-- Generator: Adobe Illustrator 19.0.0, SVG Export Plug-In . SVG Version: 6.00 Build 0)  -->
<svg version="1.1" id="Layer_1" xmlns="http://www.w3.org/2000/svg" xmlns:xlink="http://www.w3.org/1999/xlink" x="0px" y="0px"
	 viewBox="0 0 512 512" style="enable-background:new 0 0 512 512;" xml:space="preserve">
<g transform="translate(1 1)">
	<g>
		<g>
			<path d="M511,255C511,114.2,395.8-1,255-1S-1,114.2-1,255c0,36.357,7.698,70.999,21.518,102.4h-0.185l5.12,12.8
				c7.275,13.338,15.429,26.23,24.427,38.4h-0.533l2.566,2.737c2.445,3.231,4.963,6.396,7.533,9.511
				c0.676,1.614,1.814,2.888,3.309,3.719l1.1,1.1h0.764c13.476,15.009,28.69,28.426,45.316,39.936v0.171l3.413,2.56
				c9.387,5.973,18.773,11.093,28.16,16.213l1.707,0.853h0.542c18.317,8.911,37.84,15.69,58.238,20.028l1.806,0.452v-0.062
				C220.355,509.214,237.479,511,255,511c29.886,0,58.611-5.207,85.333-14.731v0.224l11.947-4.267
				c10.68-4.471,21.06-9.685,31.078-15.539l1.349-0.674c1.954-1.221,3.908-2.445,5.863-3.687
				c21.567-13.533,41.248-30.151,58.137-49.22l11.947-14.507h-0.64c9.528-12.416,17.711-25.607,24.534-39.253l5.973-11.947h-1.038
				C503.302,325.999,511,291.357,511,255z M255,16.067c128.299,0,233.804,102.489,238.734,229.636
				c-33.462-5.887-59.534-45.149-59.534-93.103v-8.533h-42.667v25.6H383v-25.6h-42.667v8.533
				c0,64.853-27.307,119.467-59.733,119.467c-12.532,0-24.449-7.058-34.996-19.417c-0.544-1.147-1.332-2.106-2.322-2.839
				C219.889,220.093,203.8,163.891,203.8,101.4V84.333h-42.667v25.6H127v-25.6H88.219C131.36,42.161,190.276,16.067,255,16.067z
				 M357.4,357.4V161.133h8.533v25.6H408.6v-25.6h8.533V357.4H357.4z M417.133,374.467V408.6H383v-34.133H417.133z M340.333,239.168
				V357.4h-25.6v-82.126C324.698,266.638,333.418,254.293,340.333,239.168z M314.733,374.467V408.6H280.6v-34.133H314.733z
				 M280.6,357.4v-68.267c5.873,0,11.584-1.138,17.067-3.29V357.4H280.6z M229.4,374.467h34.133V408.6H229.4V374.467z M203.8,357.4
				V210.76c6.855,19.452,15.537,36.073,25.6,48.938V357.4H203.8z M246.466,357.4v-80.586c5.445,4.121,11.148,7.281,17.067,9.363
				V357.4H246.466z M101.4,357.4v-256h8.533V127H178.2v-25.6h8.533v256H101.4z M161.133,374.467V408.6H127v-34.133H161.133z
				 M16.212,262.877c12.223-1.827,23.681-7.482,33.988-16.302V357.4H39.276C25.482,328.56,17.318,296.573,16.212,262.877z
				 M58.733,390.757c-3.655-5.303-7.046-10.701-10.24-16.29h10.24V390.757z M16.274,245.479
				c2.421-60.968,27.965-116.245,68.059-157.26V101.4C84.333,174.365,54.11,236.999,16.274,245.479z M67.267,357.4V227.656
				c6.492-9.098,12.234-19.692,17.067-31.522V357.4H67.267z M75.8,374.467h8.533h25.6V408.6H75.8V374.467z M161.133,468.333H147.75
				c-5.252-2.66-10.394-5.506-15.417-8.533h3.2v-8.533H152.6v8.533h8.533V468.333z M186.734,483.693L186.734,483.693
				c-2.873-0.849-5.712-1.765-8.534-2.713v-38.247h-8.533V434.2h-51.2v8.533h-8.533v1.773c-7.61-5.847-14.861-12.14-21.714-18.839
				h98.514V483.693z M178.2,408.6v-34.133h25.6h8.533V408.6H203.8H178.2z M340.333,478.075
				c-26.534,10.23-55.306,15.858-85.333,15.858c-17.562,0-34.691-1.938-51.2-5.579v-62.688h136.533V478.075z M340.333,408.6H331.8
				v-34.133h8.533h25.6V408.6H340.333z M388.272,453.035c-1.915,1.117-3.596,2.234-5.272,3.352v-5.12h7.821
				C389.972,451.857,389.129,452.455,388.272,453.035z M408.6,437.637V434.2h-42.667v32.223c-2.813,1.487-5.656,2.925-8.533,4.301
				v-45.057h64.381C417.537,429.816,413.141,433.809,408.6,437.637z M437.637,408.6H434.2v-34.133h27.497
				C454.667,386.551,446.603,397.966,437.637,408.6z M470.724,357.399H434.2V219.143c13.96,24.142,35.308,40.619,59.585,43.82
				C492.668,296.627,484.506,328.584,470.724,357.399z"/>
			<path d="M169.667,144.067h-51.2v8.533h-8.533v42.667H178.2V152.6h-8.533V144.067z M161.133,178.2H127v-8.533h8.533v-8.533H152.6
				v8.533h8.533V178.2z"/>
			<path d="M169.667,220.867h-51.2v8.533h-8.533v42.667H178.2V229.4h-8.533V220.867z M161.133,255H127v-8.533h8.533v-8.533H152.6
				v8.533h8.533V255z"/>
			<path d="M169.667,297.667h-51.2v8.533h-8.533v42.667H178.2V306.2h-8.533V297.667z M161.133,331.8H127v-8.533h8.533v-8.533H152.6
				v8.533h8.533V331.8z"/>
			<path d="M365.933,237.933H408.6v-42.667h-42.667V237.933z M383,212.333h8.533v8.533H383V212.333z"/>
			<path d="M365.933,289.133H408.6v-42.667h-42.667V289.133z M383,263.533h8.533v8.533H383V263.533z"/>
			<path d="M365.933,340.333H408.6v-42.667h-42.667V340.333z M383,314.733h8.533v8.533H383V314.733z"/>
		</g>
	</g>
</g>
<g>
</g>
<g>
</g>
<g>
</g>
<g>
</g>
<g>
</g>
<g>
</g>
<g>
</g>
<g>
</g>
<g>
</g>
<g>
</g>
<g>
</g>
<g>
</g>
<g>
</g>
<g>
</g>
<g>
</g>
</svg>
