<svg xmlns="http://www.w3.org/2000/svg" viewBox="0 0 512 512"><path d="M512 256C512 115.2 396.8 0 256 0S0 115.2 0 256c0 36.4 7.7 71 21.5 102.4h-.2l5.2 12.8a332.2 332.2 0 0024.4 38.4h-.6l2.6 2.7 7.5 9.5a7.5 7.5 0 003.4 3.8l1 1h.8c13.5 15 28.7 28.5 45.3 40v.2l3.4 2.5c9.4 6 18.8 11.1 28.2 16.2l1.7.9h.6c18.3 9 37.8 15.7 58.2 20l1.8.5a254.6 254.6 0 00136.5-9.6v.2l12-4.3c10.7-4.4 21-9.7 31-15.5l1.4-.7 5.9-3.7a268.2 268.2 0 0058.1-49.2l12-14.5h-.7a243 243 0 0024.5-39.3l6-11.9h-1C504.3 327 512 292.4 512 256zM256 17a239.7 239.7 0 01238.7 229.7c-33.4-5.9-59.5-45.1-59.5-93.1v-8.5h-42.7v25.6H384V145h-42.7v8.5c0 64.9-27.3 119.5-59.7 119.5-12.5 0-24.4-7-35-19.5a7.5 7.5 0 00-2.3-2.8c-23.4-29.7-39.5-86-39.5-148.4v-17h-42.7v25.5H128V85.3H89.2A238.1 238.1 0 01256 17.1zm102.4 341.4V162.1h8.5v25.6h42.7v-25.6h8.5v196.3h-59.7zm59.7 17v34.2H384v-34.1h34.1zm-76.8-135.2v118.2h-25.6v-82.1c10-8.7 18.7-21 25.6-36.1zm-25.6 135.3v34.1h-34.1v-34.1h34.1zm-34.1-17.1v-68.3c5.9 0 11.6-1.1 17-3.3v71.6h-17zm-51.2 17h34.1v34.2h-34.1v-34.1zm-25.6-17V211.8a173 173 0 0025.6 48.9v97.7h-25.6zm42.7 0v-80.6a63 63 0 0017 9.4v71.2h-17zm-145.1 0v-256h8.5V128h68.3v-25.6h8.5v256h-85.3zm59.7 17v34.2H128v-34.1h34.1zM17.2 264a67.7 67.7 0 0034-16.3v110.8h-11a236.6 236.6 0 01-23-94.5zm42.5 127.9c-3.6-5.3-7-10.7-10.2-16.3h10.2v16.3zM17.3 246.5c2.4-61 28-116.3 68-157.3v13.2c0 73-30.2 135.6-68 144zm51 111.9V228.7c6.5-9.1 12.2-19.7 17-31.6v161.3h-17zm8.5 17h34.1v34.2H76.8v-34.1zm85.3 94h-13.3c-5.3-2.7-10.4-5.6-15.5-8.6h3.2v-8.5h17.1v8.5h8.5v8.5zm25.6 15.3l-8.5-2.7v-38.3h-8.5v-8.5h-51.2v8.5h-8.6v1.8a242 242 0 01-21.7-18.8h98.5v58zm-8.5-75.1v-34.1h34.1v34.1h-34.1zm162.1 69.5a236.7 236.7 0 01-136.5 10.3v-62.7h136.5V479zm0-69.5h-8.5v-34.1h34.1v34.1h-25.6zm48 44.4l-5.3 3.4v-5.1h7.8l-2.5 1.7zm20.3-15.4v-3.4h-42.7v32.2a238 238 0 01-8.5 4.3v-45h64.4c-4.3 4.1-8.7 8.1-13.2 12zm29-29h-3.4v-34.1h27.5c-7 12-15.1 23.5-24 34.1zm33.1-51.2h-36.5V220.1c14 24.2 35.3 40.7 59.6 43.9a236.6 236.6 0 01-23 94.4z"/><path d="M170.7 145h-51.2v8.6h-8.6v42.7h68.3v-42.7h-8.5v-8.5zm-8.6 34.2H128v-8.5h8.5V162h17.1v8.6h8.5v8.5zM170.7 221.9h-51.2v8.5h-8.6v42.7h68.3v-42.7h-8.5v-8.5zM162 256H128v-8.5h8.5v-8.6h17.1v8.6h8.5v8.5zM170.7 298.7h-51.2v8.5h-8.6v42.7h68.3v-42.7h-8.5v-8.5zm-8.6 34.1H128v-8.5h8.5v-8.6h17.1v8.6h8.5v8.5zM367 239h42.6v-42.7h-42.7v42.6zm17-25.7h8.5v8.6H384v-8.6zM367 290.1h42.6v-42.6h-42.7V290zm17-25.6h8.5v8.6H384v-8.6zM367 341.3h42.6v-42.6h-42.7v42.6zm17-25.6h8.5v8.6H384v-8.6z"/></svg>