<svg xmlns="http://www.w3.org/2000/svg" viewBox="0 0 485 485"><path d="M414 71a241 241 0 00-343 0 241 241 0 000 343 241 241 0 00343 0 241 241 0 000-343zM238 455c-28-1-55-7-79-17a244 244 0 0098-187c25-13 52-20 80-23 19 89-20 180-99 227zm120-258c-40 0-80 9-115 28-24-15-44-34-60-57 67-61 166-72 245-28 13 23 22 50 25 77-29-13-62-20-95-20zm35-104c-78-23-163-5-226 49-14-27-22-57-23-88a211 211 0 01249 39zM115 72a244 244 0 00112 179c-1 28-8 55-19 80A212 212 0 0161 133c14-24 32-44 54-61zM30 242c0-19 3-37 7-55 20 79 78 144 156 171-16 25-38 47-64 64-60-38-99-104-99-180zm267 206c58-56 86-139 70-221 30 2 60 10 88 24-4 95-70 174-158 197z"/></svg>