<svg xmlns="http://www.w3.org/2000/svg" width="221.5" height="221.5"><path d="M158.4 81.1c-3 7.7-12.8 27.3-34.9 27.3l-81.8 81.7a12 12 0 01-15 1.3L3.5 174.8l.9 8.3 30.5 21.7c4.4 3.2 11 2.5 14.6-1.5l55.3-60.6 47.7 24.5c20.7 9.3 48.4-7.5 61.8-37.5 9.6-21.3 9.3-43.4 1-57.8l-57 9.2z"/><path d="M25.9 188.3a12 12 0 0015-1.2l81.7-81.2c25 1.6 34-27.6 34-27.6l60.6-9.8-14.7-9.1a62 62 0 007.6-16c3-10.3 1-19-5.4-24.4-4.6-3.8-12.5-7-24.4-.7a73 73 0 00-18.7 15.8l-17.5-10.9c-22.9-3.8-45.8 19.1-45.8 19.1-18.6 32.8-38.2 27.3-38.2 27.3L1.6 159.1c-3 4.5-1.7 10.7 2.7 13.9l21.6 15.3zM184.9 27c8.5-4.6 12.3-1.5 13.5-.4 3.3 2.8 4.1 7.5 2.2 14a52.7 52.7 0 01-6.5 13.6l-24-14.9A61 61 0 01185 27zm-83.7 17.8L154 74c-7 26.2-30.3 28.5-30.3 28.5a95.3 95.3 0 01-62-29.6c23.4 3.7 39.4-28 39.4-28z"/></svg>