<?xml version="1.0" standalone="no"?>
<!DOCTYPE svg PUBLIC "-//W3C//DTD SVG 20010904//EN"
 "http://www.w3.org/TR/2001/REC-SVG-20010904/DTD/svg10.dtd">
<svg version="1.0" xmlns="http://www.w3.org/2000/svg"
 width="173.000000pt" height="167.000000pt" viewBox="0 0 173.000000 167.000000"
 preserveAspectRatio="xMidYMid meet">
<metadata>
Created by potrace 1.15, written by Peter Selinger 2001-2017
</metadata>
<g transform="translate(0.000000,167.000000) scale(0.100000,-0.100000)"
fill="#000000" stroke="none">
<path d="M690 1633 c0 -10 5 -24 12 -31 12 -12 27 -209 27 -368 l1 -92 -112
-21 c-172 -32 -165 -36 -118 61 51 104 51 122 3 146 -50 25 -85 33 -102 23
-10 -7 -10 -14 4 -40 15 -29 15 -37 0 -94 -19 -74 -105 -256 -163 -346 -44
-67 -51 -91 -28 -91 20 0 111 103 168 190 27 41 51 76 53 78 2 2 12 -2 23 -9
16 -10 44 -9 146 7 l126 20 0 -126 0 -127 -52 -11 c-29 -7 -85 -17 -125 -23
-91 -15 -103 -22 -80 -47 26 -28 55 -31 155 -16 48 7 93 13 100 14 15 0 18
-275 3 -284 -5 -4 -89 -15 -188 -26 -98 -11 -236 -27 -307 -35 -172 -19 -186
-34 -69 -72 49 -15 58 -15 185 5 399 65 528 77 816 75 256 -2 272 -1 272 16 0
19 -24 43 -79 81 -43 30 -87 29 -320 -5 -95 -14 -184 -25 -197 -25 l-25 0 3
143 3 142 71 6 c85 8 177 33 194 54 19 23 5 43 -36 51 -34 6 -185 -9 -220 -23
-13 -5 -14 12 -12 122 l3 128 135 27 c74 15 149 33 165 40 l30 12 -24 19 c-29
24 -106 25 -218 4 -43 -8 -81 -15 -85 -15 -11 0 -9 198 3 300 16 139 17 132
-17 152 -17 10 -52 21 -77 24 -42 6 -47 5 -47 -13z"/>
</g>
</svg>
